{"glyphs":{":":{"x_min":0,"x_max":202,"ha":202,"o":"m 91 80 b 105 80 132 137 132 158 b 132 179 105 204 77 204 b 60 204 32 156 32 125 b 32 93 74 80 91 80 z m 166 310 b 180 310 207 367 207 388 b 207 409 180 434 152 434 b 135 434 107 386 107 355 b 107 323 149 310 166 310 z"},"$":{"x_min":0,"x_max":659,"ha":659,"o":"m 600 809 b 600 864 554 890 508 894 b 521 929 529 953 529 958 b 529 987 492 1017 492 999 b 492 988 477 948 455 890 b 281 850 107 572 107 506 b 107 435 171 400 238 375 b 186 258 138 145 102 62 b 87 58 72 57 58 57 b 9 57 119 238 119 253 b 119 268 102 292 86 292 b 62 292 -19 150 -19 105 b -19 71 21 26 78 4 b 55 -49 42 -83 42 -88 b 42 -101 91 -137 91 -118 b 91 -110 107 -69 132 -8 b 135 -8 138 -8 141 -8 b 276 -8 463 183 463 276 b 463 334 376 368 302 400 b 380 583 458 768 500 874 b 502 874 505 875 507 875 b 531 875 550 862 550 846 b 550 782 453 699 453 634 b 453 598 485 575 507 575 b 522 575 510 592 510 605 b 510 663 600 741 600 809 z m 378 298 b 378 249 281 138 170 85 b 203 164 243 260 284 357 b 336 339 378 324 378 298 z m 258 421 b 228 436 207 453 207 472 b 207 512 332 723 428 822 b 383 712 320 565 258 421 z"},"?":{"x_min":0,"x_max":547,"ha":547,"o":"m 81 209 b 58 209 1 103 1 60 b 1 17 96 -46 96 8 b 96 53 155 117 155 146 b 155 175 118 209 81 209 z m 409 872 b 283 872 148 718 148 647 b 148 577 193 567 211 567 b 224 567 237 582 217 582 b 194 582 179 604 179 632 b 179 701 319 844 403 844 b 450 844 461 824 462 807 b 462 644 130 435 130 345 b 130 304 230 218 230 268 b 230 386 576 604 576 731 b 576 838 484 872 409 872 z"},"<":{"x_min":0,"x_max":470,"ha":470,"o":"m 337 580 b 337 514 -4 332 -4 288 b -4 223 202 142 241 103 b 256 88 284 84 284 109 b 284 135 87 232 87 232 b 87 232 415 468 415 508 b 415 549 337 609 337 580 z"},"'":{"x_min":0,"x_max":224,"ha":224,"o":"m 92 902 b 92 842 0 720 0 690 b 0 642 92 613 92 639 b 92 686 170 796 170 829 b 170 888 92 934 92 902 z"},"=":{"x_min":0,"x_max":445,"ha":445,"o":"m 80 493 b 54 493 93 438 166 438 b 240 438 355 436 407 436 b 437 436 436 435 456 435 b 485 435 439 501 385 501 b 330 501 180 493 114 493 b 91 493 92 493 80 493 z m 26 311 b 0 311 39 256 112 256 b 186 256 301 254 353 254 b 383 254 382 253 402 253 b 431 253 385 319 331 319 b 276 319 126 311 60 311 b 37 311 38 311 26 311 z"},"a":{"x_min":0,"x_max":678,"ha":678,"o":"m -42 190 b -42 100 10 0 107 0 b 181 0 271 125 271 125 b 271 125 276 0 384 0 b 482 0 667 365 707 450 b 717 473 690 481 678 458 b 644 390 469 48 399 48 b 327 48 480 316 480 353 b 480 390 375 455 375 415 b 375 375 239 40 122 40 b -15 40 218 535 359 535 b 448 535 445 460 441 451 b 438 443 453 429 462 451 b 472 474 467 601 325 601 b 146 601 -42 365 -42 190 z"},"L":{"x_min":0,"x_max":615,"ha":615,"o":"m 1691 -145 b 1687 -118 1666 -97 1639 -101 b 1598 -107 1629 -142 1632 -159 b 1639 -214 1570 -296 1429 -316 b 901 -393 539 -118 282 -24 b 312 361 723 891 723 955 b 723 1008 663 1052 618 1052 b 234 1052 -136 769 -136 589 b -136 508 -77 461 -12 461 b 54 461 -12 497 -12 567 b -12 832 376 1015 598 1018 b 598 1015 598 1012 598 1008 b 598 985 175 407 135 7 b 126 7 117 6 107 5 b 24 -8 -48 -143 64 -127 b 85 -124 114 -128 148 -137 b 171 -199 218 -252 280 -252 b 329 -252 325 -233 311 -197 b 563 -301 934 -478 1251 -432 b 1615 -379 1701 -216 1691 -145 z"},"3":{"x_min":0,"x_max":650,"ha":650,"o":"m 648 697 b 648 826 537 883 430 883 b 326 883 217 836 186 762 b 141 654 214 614 218 624 b 222 634 206 647 236 721 b 264 786 360 848 469 848 b 516 848 558 810 558 763 b 558 601 260 542 260 461 b 260 403 314 365 314 397 b 314 413 341 430 380 450 b 429 472 488 480 488 389 b 488 235 336 71 128 71 b 80 71 55 102 48 120 b 25 185 -18 191 8 121 b 28 67 88 -9 213 -9 b 378 -9 574 160 574 327 b 574 423 514 472 459 491 b 549 539 648 603 648 695 b 648 696 648 696 648 697 b 648 697 648 697 648 697 z"},";":{"x_min":0,"x_max":168,"ha":168,"o":"m 52 48 b 52 -58 -74 -115 -74 -133 b -74 -225 151 -95 151 25 b 151 60 52 116 52 48 z m 171 149 b 171 173 211 218 211 247 b 211 275 174 309 137 309 b 114 309 76 244 76 201 b 76 158 171 117 171 149 z"},"J":{"x_min":0,"x_max":743,"ha":743,"o":"m 509 1062 b 286 1062 -44 688 -44 483 b -44 359 103 322 103 367 b 103 385 84 386 84 451 b 84 586 380 1033 502 1033 b 555 1033 564 912 564 802 b 564 667 519 489 448 313 b 174 173 -394 -419 -128 -419 b 320 -419 699 350 699 788 b 699 1013 584 1062 509 1062 z m -132 -385 b -260 -385 139 75 427 262 b 283 -71 54 -385 -132 -385 z"},"V":{"x_min":0,"x_max":908,"ha":908,"o":"m 862 1215 b 798 1215 873 1191 873 934 b 873 550 297 -102 137 -102 b 130 -87 117 -78 117 -16 b 117 167 436 562 436 771 b 436 807 440 954 303 954 b -38 954 -398 621 -398 329 b -398 37 -194 39 -194 66 b -194 93 -253 99 -253 299 b -253 512 65 928 275 928 b 485 928 2 230 2 42 b 2 -84 75 -140 115 -141 b 115 -141 115 -141 115 -141 b 115 -141 115 -141 115 -141 b 117 -141 118 -141 119 -141 b 434 -135 1020 532 1020 931 b 1020 1151 903 1215 862 1215 z"},"\"":{"x_min":0,"x_max":382,"ha":382,"o":"m 92 902 b 92 842 0 720 0 690 b 0 642 92 613 92 639 b 92 686 170 796 170 829 b 170 888 92 934 92 902 z m 255 876 b 255 832 165 703 165 673 b 165 626 250 602 250 628 b 250 676 338 772 338 797 b 338 865 255 909 255 876 z"},"7":{"x_min":0,"x_max":597,"ha":597,"o":"m 578 875 b 569 876 565 873 562 867 b 490 854 275 782 126 838 b 73 858 58 909 43 869 b 28 829 69 785 108 770 b 229 725 402 766 504 796 b 373 679 46 389 3 164 b -9 102 16 15 80 3 b 143 -10 89 50 105 133 b 157 405 630 745 639 792 b 646 829 610 868 578 875 z"},"S":{"x_min":0,"x_max":914,"ha":914,"o":"m 632 137 b 632 54 263 -162 146 -162 b 44 -162 38 -110 38 -75 b 38 -40 -8 -39 -8 -75 b -8 -110 17 -276 174 -276 b 384 -276 745 -61 745 125 b 745 358 -60 200 -60 471 b -60 613 259 1140 728 1140 b 810 1140 873 1094 873 998 b 873 830 506 485 444 485 b 381 485 474 358 511 358 b 646 358 983 739 983 923 b 983 1097 863 1176 708 1176 b 244 1176 -232 761 -232 524 b -232 113 632 254 632 137 z"},"}":{"x_min":0,"x_max":583,"ha":583,"o":"m 452 986 b 425 986 479 949 479 907 b 479 804 235 472 235 395 b 235 328 262 312 262 312 b 146 312 45 -111 -23 -111 b -46 -111 -70 -98 -70 -111 b -70 -124 -21 -148 23 -148 b 167 -148 202 266 320 266 b 336 266 351 268 351 282 b 351 296 320 308 320 353 b 320 421 562 766 562 869 b 562 952 488 986 452 986 z"},"Z":{"x_min":0,"x_max":745,"ha":745,"o":"m 958 -108 b 680 31 249 -20 75 -29 b 79 -17 83 -5 89 8 b 262 382 941 721 971 785 b 994 837 960 908 921 930 b 910 936 904 933 899 926 b 896 928 891 930 886 931 b 687 987 239 940 222 867 b 219 855 221 845 236 841 b 256 835 575 881 865 820 b 670 678 145 424 -6 98 b -42 19 -44 -101 18 -155 b 24 -161 31 -167 37 -170 b 147 -225 543 -1 1065 -262 b 1157 -308 1195 -408 1183 -465 b 1179 -482 1154 -515 1181 -528 b 1199 -537 1216 -518 1221 -491 b 1236 -416 1197 -228 958 -108 z"},"x":{"x_min":0,"x_max":621,"ha":621,"o":"m 621 455 b 588 387 434 48 343 48 b 325 48 301 188 283 315 b 374 421 454 525 481 581 b 491 601 465 607 455 591 b 416 529 351 444 278 356 b 270 409 265 456 261 484 b 248 590 135 600 123 600 b 62 600 -12 425 -12 425 b -22 402 -6 376 6 399 b 6 399 88 557 108 557 b 124 557 148 343 162 223 b 93 146 22 74 -38 18 b -52 5 -24 -7 -10 5 b 32 41 97 107 167 183 b 168 172 169 162 171 156 b 181 87 224 0 294 0 b 452 0 610 362 650 447 b 660 470 633 477 621 455 z"},")":{"x_min":0,"x_max":484,"ha":484,"o":"m 340 853 b 340 550 100 61 -68 63 b -133 63 -63 -1 0 -1 b 190 -1 391 437 391 694 b 391 856 353 890 342 890 b 327 890 340 870 340 853 z"},"&":{"x_min":0,"x_max":669,"ha":669,"o":"m 570 45 b 570 31 567 -57 467 -57 b 397 -57 329 -8 277 67 b 402 139 520 252 520 323 b 520 353 476 380 476 363 b 476 291 371 172 258 97 b 219 161 192 241 182 325 b 336 465 530 617 530 711 b 530 784 469 835 393 835 b 282 835 163 684 146 444 b 30 332 -75 220 -75 148 b -75 48 -1 -1 79 -1 b 125 -1 181 18 239 47 b 304 -48 391 -96 463 -96 b 596 -96 619 -8 619 13 b 619 44 570 80 570 45 z m 400 806 b 541 806 362 650 185 482 b 210 665 304 806 400 806 z m 82 28 b 45 28 -1 56 -1 89 b -1 142 65 215 150 295 b 161 207 187 133 221 74 b 172 46 123 28 82 28 z"},"_":{"x_min":0,"x_max":538,"ha":538,"o":"m -67 -15 b -93 -15 -54 -70 19 -70 b 93 -70 394 -72 446 -72 b 476 -72 475 -73 495 -73 b 524 -73 478 -7 424 -7 b 369 -7 33 -15 -33 -15 b -56 -15 -55 -15 -67 -15 z"},"v":{"x_min":0,"x_max":541,"ha":541,"o":"m 544 455 b 544 455 442 254 378 254 b 315 254 452 423 452 495 b 452 581 341 628 341 582 b 341 491 264 410 264 346 b 264 322 276 294 294 271 b 263 205 176 40 67 40 b -83 40 177 423 177 495 b 177 581 65 628 65 582 b 65 480 -98 291 -98 156 b -98 91 -26 0 66 0 b 180 0 275 164 317 249 b 334 235 354 226 375 226 b 461 226 573 447 573 447 b 583 470 556 477 544 455 z"},"O":{"x_min":0,"x_max":1015,"ha":1015,"o":"m 782 1056 b 282 1056 -173 658 -173 417 b -173 277 -8 235 -8 286 b -8 312 -26 313 -26 382 b -26 541 408 1023 768 1023 b 1162 1023 624 -183 240 -183 b -69 -183 380 732 674 732 b 690 732 695 728 709 728 b 756 728 723 838 639 838 b 267 838 -301 -223 237 -223 b 828 -223 1337 1056 782 1056 z"},"(":{"x_min":0,"x_max":404,"ha":404,"o":"m 539 897 b 416 897 0 518 0 247 b 0 107 73 -1 138 -1 b 151 -1 163 4 163 14 b 163 24 117 54 117 189 b 117 591 550 871 550 883 b 550 890 548 897 539 897 z"},"C":{"x_min":0,"x_max":963,"ha":963,"o":"m 957 412 b 888 283 634 -151 256 -151 b 199 -151 91 -103 91 8 b 91 405 577 958 902 958 b 920 958 944 955 967 952 l 959 952 b 959 777 758 486 662 486 b 619 486 633 437 696 437 b 799 437 1028 748 1028 956 l 1028 956 b 1028 956 1028 956 1028 956 b 1028 1011 890 1075 817 1075 b 502 1075 -39 503 -39 95 b -39 -40 44 -208 285 -208 b 644 -208 914 248 996 408 b 1018 452 974 453 957 412 z"},"W":{"x_min":0,"x_max":1236,"ha":1236,"o":"m 1207 1228 b 1154 1228 1217 1204 1217 947 b 1217 563 737 -89 603 -89 b 602 -89 601 -89 600 -89 b 594 -74 581 -65 581 -3 b 581 180 784 368 784 577 b 784 628 743 664 702 664 b 657 664 672 651 672 622 b 672 622 249 -3 130 -83 b 123 -71 114 -56 114 -3 b 114 180 432 575 432 784 b 432 820 437 967 300 967 b -41 967 -401 634 -401 342 b -401 50 -197 52 -197 79 b -197 106 -257 112 -257 312 b -257 525 61 941 271 941 b 481 941 -2 243 -2 55 b -2 -89 94 -142 126 -125 b 248 -85 551 368 655 527 b 607 368 465 182 465 55 b 465 -77 545 -132 584 -128 b 584 -128 585 -128 585 -128 b 846 -128 1381 543 1381 944 b 1381 1164 1242 1228 1207 1228 z"},"A":{"x_min":0,"x_max":916,"ha":916,"o":"m 1063 -135 b 1049 -161 1009 -197 925 -197 b 840 -197 664 -138 664 108 b 664 158 688 232 724 316 b 726 316 727 316 729 316 b 791 316 789 352 742 357 b 848 590 1023 881 1023 976 b 1023 1021 958 1071 925 1073 b 925 1073 925 1073 925 1073 b 925 1073 925 1073 925 1073 b 915 1074 907 1069 907 1058 b 907 1057 907 1057 907 1056 b 843 987 624 710 399 460 b 309 507 218 552 89 552 b -463 552 -547 -39 -127 -39 b -19 -39 204 174 415 408 b 472 378 530 349 598 332 b 571 259 554 194 554 145 b 554 -132 755 -239 905 -239 b 1054 -239 1093 -138 1093 -138 b 1093 -138 1078 -110 1063 -135 z m -123 21 b -395 21 -219 514 95 514 b 204 514 288 474 372 431 b 172 212 -27 21 -123 21 z m 613 371 b 550 386 495 411 442 438 b 641 659 824 890 885 969 b 831 824 693 573 613 371 z"},"f":{"x_min":0,"x_max":339,"ha":339,"o":"m 600 782 b 600 802 466 742 261 742 b 328 910 382 1030 415 1030 b 450 1030 427 982 455 982 b 483 982 480 1057 404 1057 b 306 1057 212 925 125 745 b -133 761 -215 815 -215 780 b -215 761 -101 708 99 691 b -79 300 -229 -264 -328 -264 b -363 -264 -357 -291 -319 -291 b -133 -291 83 294 238 686 b 490 687 600 761 600 782 z"},"Q":{"x_min":0,"x_max":1109,"ha":1109,"o":"m 1409 -685 b 1232 -685 919 -233 504 -109 b 1029 67 1416 1146 907 1146 b 407 1146 -49 748 -49 506 b -49 366 117 324 117 375 b 117 401 99 402 99 471 b 99 630 533 1112 893 1112 b 1271 1112 789 -1 410 -88 b 377 -82 343 -79 308 -79 b 121 38 526 821 799 821 b 814 821 819 817 834 817 b 880 817 848 927 764 927 b 439 927 -35 118 208 -87 b 32 -118 -49 -237 -49 -299 b -49 -325 -31 -349 -3 -349 b 38 -349 12 -310 12 -293 b 12 -238 115 -167 257 -167 b 888 -167 1097 -808 1348 -808 b 1447 -808 1508 -685 1409 -685 z"},"w":{"x_min":0,"x_max":799,"ha":799,"o":"m 798 455 b 798 455 696 254 631 254 b 568 254 705 423 705 495 b 705 581 594 628 594 582 b 594 491 517 410 517 346 b 517 330 523 312 532 294 b 519 263 417 32 352 32 b 202 32 397 291 397 363 b 397 449 285 497 285 450 b 285 366 215 291 191 210 b 152 132 93 32 50 32 b -100 32 155 423 155 495 b 155 581 43 628 43 582 b 43 480 -120 291 -120 156 b -120 91 -48 0 44 0 b 92 0 143 65 184 135 b 197 73 263 0 346 0 b 427 0 518 188 552 265 b 573 243 600 226 628 226 b 714 226 827 447 827 447 b 837 470 809 477 798 455 z"},"-":{"x_min":0,"x_max":538,"ha":538,"o":"m 78 394 b 52 394 91 339 164 339 b 238 339 353 337 405 337 b 435 337 434 336 454 336 b 483 336 437 402 383 402 b 328 402 178 394 112 394 b 89 394 90 394 78 394 z"},"E":{"x_min":0,"x_max":961,"ha":961,"o":"m 1153 1103 b 1153 1203 1053 1243 1053 1201 b 1053 1152 1025 1094 991 1033 b 977 1072 940 1119 842 1119 b 637 1119 343 881 343 714 b 343 667 354 628 372 596 b 151 476 -71 227 -71 71 b -71 -510 900 -34 900 237 b 900 248 893 256 875 256 b 859 256 830 246 830 217 b 830 2 80 -376 80 40 b 80 156 248 406 473 504 b 538 471 619 459 692 459 b 715 459 726 473 726 479 b 726 487 714 483 696 483 b 660 483 590 496 532 526 b 573 539 615 546 658 546 b 708 546 742 522 742 504 b 742 498 732 495 732 486 b 732 483 734 477 742 477 b 749 477 788 485 788 529 b 788 552 788 665 598 665 b 550 665 497 652 443 629 b 441 637 441 644 441 652 b 441 768 652 1002 897 1002 b 928 1002 951 991 959 979 b 916 905 875 831 875 772 b 875 705 937 661 978 661 b 1006 661 983 694 983 718 b 983 827 1153 982 1153 1103 z"},"s":{"x_min":0,"x_max":422,"ha":422,"o":"m 423 453 b 399 405 324 227 198 121 b 210 150 217 184 217 223 b 217 328 130 383 130 491 b 130 577 217 606 217 645 b 217 685 160 691 137 691 b 90 691 -5 614 -5 501 b -5 487 -4 474 -1 461 b -2 460 -3 459 -4 457 b -19 424 -26 404 -70 326 b -81 307 -55 294 -43 315 b -8 376 -9 380 10 419 b 36 347 87 299 87 225 b 87 126 12 47 -42 47 b -120 47 -104 119 -126 119 b -149 119 -148 1 -12 1 l -6 1 b 16 1 37 4 57 9 l 60 9 b 280 63 415 368 451 445 b 461 467 434 475 423 453 z"},">":{"x_min":0,"x_max":470,"ha":470,"o":"m 4 149 b 4 131 59 54 78 73 b 183 177 406 295 406 327 b 406 364 209 562 195 583 b 181 603 147 587 159 570 b 190 529 294 397 315 379 b 315 379 4 163 4 149 z"},"l":{"x_min":0,"x_max":377,"ha":377,"o":"m 348 835 b 348 896 245 971 245 925 b 245 821 -75 243 -75 124 b -75 48 -33 0 25 0 l 25 0 b 160 0 366 357 406 441 b 416 464 388 472 377 449 b 343 381 150 59 63 59 b -52 59 348 703 348 835 z"},"8":{"x_min":0,"x_max":747,"ha":747,"o":"m 749 678 b 749 734 713 775 684 790 b 680 823 640 886 540 886 b 259 886 79 564 279 471 b -61 409 -102 0 228 0 b 585 0 709 354 498 453 b 649 481 749 580 749 678 z m 227 43 b 26 43 155 434 394 434 b 594 434 549 43 227 43 z m 385 480 b 204 480 337 841 577 841 b 632 841 654 817 664 796 b 664 796 663 797 662 797 b 635 797 685 769 685 694 b 685 620 566 480 385 480 z"},"\\":{"x_min":0,"x_max":420,"ha":420,"o":"m 389 -54 b 389 -91 471 -30 471 37 b 471 138 103 744 103 905 b 103 942 -2 883 -2 815 b -2 731 389 107 389 -54 z"},"e":{"x_min":0,"x_max":588,"ha":588,"o":"m 588 454 b 555 386 368 57 169 57 b 114 57 103 114 119 190 b 294 212 571 599 365 599 l 365 599 b 171 599 -31 400 -31 211 b -31 121 28 0 154 0 b 396 0 577 362 617 446 b 627 469 600 477 588 454 z m 379 563 b 477 563 270 263 130 231 b 174 377 293 563 379 563 z"},"b":{"x_min":0,"x_max":742,"ha":742,"o":"m 742 455 b 715 400 559 166 328 76 b 452 165 555 319 555 449 b 555 504 546 600 454 600 b 342 600 171 409 171 409 b 171 409 364 778 364 870 b 364 925 252 986 252 930 b 252 840 -50 294 -50 185 b -50 68 3 0 130 0 b 486 0 731 362 771 447 b 781 470 753 478 742 455 z m 137 48 b 83 48 64 111 64 157 b 64 299 425 647 425 496 b 425 344 249 48 137 48 z"},"%":{"x_min":0,"x_max":480,"ha":480,"o":"m 141 555 b 231 555 291 637 291 699 b 291 735 251 774 202 774 b 148 774 66 682 66 630 b 66 578 117 555 141 555 z m 224 725 b 231 725 232 717 232 706 b 232 659 179 587 124 587 b 118 587 117 595 117 601 b 117 635 192 725 224 725 z m 524 709 b 524 778 439 846 439 809 b 439 673 0 295 0 123 b 0 49 61 -17 101 -17 b 152 -17 98 22 98 87 b 98 239 524 628 524 709 z m 316 261 b 262 261 180 169 180 117 b 180 65 231 42 254 42 b 344 42 405 124 405 186 b 405 222 365 261 316 261 z m 238 74 b 232 74 231 82 231 87 b 231 122 306 211 338 211 b 345 211 346 204 346 193 b 346 146 292 74 238 74 z"},"m":{"x_min":0,"x_max":945,"ha":945,"o":"m 945 453 b 911 385 710 48 640 48 b 544 48 788 453 788 500 b 788 542 741 588 712 596 b 712 596 712 596 711 596 b 708 597 705 597 703 597 b 702 597 702 597 702 597 b 671 597 485 365 396 251 b 446 351 504 454 504 495 b 504 561 438 601 408 597 b 408 597 407 597 407 597 b 376 597 189 363 100 250 b 150 350 209 454 209 495 b 209 581 98 628 98 582 b 98 480 -77 255 -77 121 b -77 48 -20 0 25 0 b 56 0 31 36 31 62 b 31 68 32 76 33 83 b 79 190 307 451 384 532 b 348 419 219 236 219 121 b 219 48 276 0 321 0 b 351 0 327 36 327 62 b 327 69 328 77 329 86 b 376 191 589 437 672 524 b 626 417 513 204 513 124 b 513 48 556 0 614 0 l 614 0 b 730 0 934 361 973 445 b 984 468 956 475 945 453 z"},"#":{"x_min":0,"x_max":833,"ha":833,"o":"m 733 515 b 701 501 637 497 558 497 b 595 575 624 638 624 662 b 624 705 551 747 551 713 b 551 693 508 604 458 499 b 418 500 377 502 336 503 b 372 581 399 642 399 666 b 399 727 329 747 329 713 b 329 693 289 609 241 508 b 149 511 76 512 53 502 b 9 482 -8 410 18 421 b 51 435 123 441 210 442 b 193 408 177 374 161 340 b 80 343 17 343 -5 334 b -49 314 -65 242 -40 253 b -10 267 52 270 128 269 b 87 178 55 100 55 69 b 55 9 132 -17 132 16 b 132 63 172 161 222 267 b 263 265 305 262 345 259 b 306 172 277 99 277 69 b 277 9 353 -17 353 16 b 353 61 392 153 438 253 b 543 247 627 242 647 251 b 691 272 700 358 675 347 b 641 332 565 328 475 329 b 492 363 509 398 525 432 b 607 427 670 425 689 427 b 732 433 757 526 733 515 z m 378 331 b 337 333 296 335 255 337 b 272 372 289 407 306 441 b 347 440 388 438 429 436 b 412 401 394 366 378 331 z"},",":{"x_min":0,"x_max":299,"ha":299,"o":"m 52 48 b 52 -58 -74 -115 -74 -133 b -74 -225 158 -100 158 20 b 158 55 52 116 52 48 z"},"n":{"x_min":0,"x_max":625,"ha":625,"o":"m 625 453 b 585 357 417 48 347 48 b 251 48 495 453 495 500 b 495 542 450 586 421 595 b 421 595 420 596 420 596 b 420 596 420 596 420 596 b 419 596 419 596 418 596 b 415 597 412 597 410 597 b 409 597 409 597 408 597 b 378 597 190 363 101 250 b 151 350 211 454 211 495 b 211 581 100 628 100 582 b 100 480 -75 255 -75 121 b -75 48 -18 0 27 0 b 57 0 33 36 33 62 b 33 68 34 76 35 83 b 80 187 295 436 379 525 b 333 417 220 204 220 124 b 220 48 263 0 321 0 l 321 0 b 446 0 614 361 654 445 b 664 468 637 475 625 453 z"},"h":{"x_min":0,"x_max":618,"ha":618,"o":"m 618 454 b 585 386 370 48 299 48 b 203 48 448 455 448 503 b 448 550 388 602 362 600 b 362 600 361 600 361 600 b 330 600 138 360 49 247 b 146 453 313 749 313 844 b 313 904 198 972 198 926 b 198 792 -125 256 -125 122 b -125 48 -68 0 -22 0 b 8 0 -16 36 -16 62 b -16 69 -15 77 -13 86 b 33 192 248 439 331 527 b 285 420 172 205 172 124 b 172 48 215 0 273 0 l 273 0 b 390 0 607 362 647 446 b 657 469 630 477 618 454 z"},"z":{"x_min":0,"x_max":524,"ha":524,"o":"m 526 455 b 466 340 346 223 217 113 b 199 137 173 142 151 142 b 130 142 103 128 76 110 b 128 190 185 291 185 331 b 185 369 89 366 89 463 b 89 532 160 605 160 643 b 160 682 89 694 51 694 b 14 694 -26 606 -26 523 b -26 410 75 373 75 373 b 75 373 -91 126 -91 72 b -91 40 -52 7 -19 1 b -18 0 -15 0 -13 0 b -12 0 -12 0 -12 0 b -11 0 -10 0 -8 0 b -7 0 -3 3 3 9 b 42 43 132 151 132 61 b 132 55 132 49 130 41 b -68 -122 -260 -263 -260 -349 b -260 -385 -229 -447 -116 -447 b 81 -447 245 -93 245 0 b 245 35 241 62 234 82 b 375 205 506 335 555 447 b 565 470 538 477 526 455 z m -196 -365 b -208 -365 -212 -358 -212 -348 b -212 -289 -58 -165 114 -21 b 69 -152 -54 -365 -196 -365 z"},"B":{"x_min":0,"x_max":1137,"ha":1137,"o":"m 1244 868 b 1244 925 1218 1084 881 1084 b 239 1084 -253 676 -253 439 b -253 325 -172 293 -108 293 b -106 293 -104 293 -102 293 b 93 293 469 737 588 798 b 569 725 509 603 449 482 b 408 482 403 508 385 508 b 347 508 359 450 416 415 b 357 294 306 183 306 131 b 306 65 368 21 409 21 b 437 21 414 53 414 77 b 414 128 479 255 548 389 b 609 393 678 409 747 435 b 756 435 765 435 775 435 b 902 435 932 382 932 334 b 932 175 571 -129 167 -129 b 93 -129 72 -91 72 -67 b 72 14 9 22 9 -66 b 9 -133 58 -229 255 -229 b 581 -229 1031 65 1031 257 b 1031 382 910 461 813 461 b 1035 560 1244 737 1244 868 z m 607 504 b 663 615 709 716 709 764 b 709 809 633 858 605 852 b 481 837 81 334 -93 334 b -95 334 -96 334 -97 334 b -116 337 -133 349 -133 386 b -133 528 278 1034 886 1034 b 1177 1034 1167 917 1167 881 b 1167 777 869 572 607 504 z"},"K":{"x_min":0,"x_max":745,"ha":745,"o":"m 1130 1020 b 979 1020 579 770 356 563 b 458 740 564 876 564 911 b 564 964 504 1008 459 1008 b 76 1008 -560 531 -560 351 b -560 271 -502 224 -437 224 b -371 224 -437 260 -437 329 b -437 594 213 967 438 974 b 438 971 438 967 438 964 b 438 939 26 432 26 33 b 26 -56 83 -168 174 -168 b 264 -168 174 -100 174 18 b 174 121 202 229 243 333 b 382 106 838 -419 1036 -419 b 1201 -419 1222 -286 1194 -286 b 1166 -286 1192 -334 1116 -334 b 873 -334 473 240 323 451 b 492 593 859 937 1162 937 b 1202 937 1200 915 1220 915 b 1253 915 1228 1020 1130 1020 z"},"R":{"x_min":0,"x_max":892,"ha":892,"o":"m 1460 -121 b 1423 -186 1284 -253 1124 -253 b 887 -253 409 -3 360 370 b 997 434 1475 1152 720 1152 b 207 1152 -304 693 -304 431 b -304 227 -59 265 -59 304 b -59 342 -170 269 -170 372 b -170 530 223 1112 743 1112 b 1222 1112 803 518 373 427 b 453 577 536 703 536 735 b 536 784 481 824 440 824 b 418 824 421 807 421 784 b 421 774 359 680 289 554 b 209 641 94 573 94 503 b 93 465 124 403 198 378 b 140 255 94 126 94 24 b 94 -57 146 -160 229 -160 b 312 -160 229 -98 229 10 b 229 93 261 190 303 287 b 377 -49 714 -389 1049 -389 b 1318 -389 1446 -251 1508 -153 b 1536 -111 1470 -104 1460 -121 z m 218 421 b 161 434 146 472 146 500 b 146 541 210 507 237 457 b 231 445 224 433 218 421 z"},"T":{"x_min":0,"x_max":466,"ha":466,"o":"m 1052 1137 b 519 1137 -195 801 -278 801 b -391 801 -300 678 -216 678 b -41 678 240 585 181 444 l 181 444 b 92 275 3 95 3 23 b 3 -95 84 -170 131 -170 b 177 -170 131 -128 131 0 b 131 129 453 595 453 717 b 453 774 358 857 358 802 b 358 776 297 663 226 529 b 192 625 54 688 -107 704 b 121 789 574 1049 1244 1049 b 1386 1049 1466 977 1466 923 b 1466 905 1441 866 1482 866 b 1509 866 1527 890 1527 917 b 1527 989 1419 1137 1052 1137 z"},"P":{"x_min":0,"x_max":892,"ha":892,"o":"m 780 1146 b 266 1146 -245 687 -245 425 b -245 220 0 259 0 297 b 0 336 -111 263 -111 366 b -111 524 283 1106 802 1106 b 1273 1106 811 436 377 311 b 467 506 596 690 596 729 b 596 778 540 818 500 818 b 478 818 481 800 481 778 b 481 762 318 525 222 292 b 98 303 144 409 95 409 b 47 409 69 271 203 245 b 173 164 153 85 153 18 b 153 -64 206 -166 288 -166 b 371 -166 288 -104 288 4 b 288 77 313 162 349 247 b 989 328 1531 1146 780 1146 z"},"|":{"x_min":0,"x_max":289,"ha":289,"o":"m 167 -124 b 167 37 202 721 202 805 b 202 873 97 942 97 905 b 97 744 85 68 85 -33 b 85 -100 167 -161 167 -124 z"},"t":{"x_min":0,"x_max":448,"ha":448,"o":"m 268 616 b 468 616 554 674 554 691 b 554 707 450 660 290 660 b 287 660 283 660 279 660 b 317 742 343 810 343 843 b 343 904 246 971 246 925 b 246 886 203 784 149 665 b -21 680 -76 715 -76 689 b -76 676 -2 640 130 624 b 42 434 -64 217 -64 147 b -64 54 15 0 60 0 l 60 0 b 237 0 437 361 477 445 b 487 468 459 476 448 454 b 414 385 214 48 86 48 b -26 48 147 376 259 616 b 262 616 265 616 268 616 z"},"M":{"x_min":0,"x_max":1243,"ha":1243,"o":"m 1428 -136 b 1413 -162 1374 -198 1289 -198 b 1205 -198 1029 -140 1029 107 b 1029 397 1320 718 1320 841 b 1320 902 1293 960 1210 960 b 1112 960 909 753 759 562 b 850 746 935 917 935 960 b 935 1041 901 1075 844 1075 b 716 1075 506 839 360 647 b 439 809 507 962 507 1049 b 507 1085 512 1231 375 1231 b 34 1231 -326 899 -326 607 b -326 315 -122 317 -122 344 b -122 371 -182 376 -182 576 b -182 790 136 1205 346 1205 b 556 1205 -2 313 -2 124 b -2 -49 137 -90 137 -37 b 137 -5 114 -16 114 67 b 114 148 191 308 277 480 b 422 669 791 1119 791 977 b 791 888 437 286 437 109 b 437 -59 585 -73 585 -47 b 585 -16 544 -37 544 60 b 544 110 604 246 678 398 b 685 407 693 417 702 429 b 844 619 1194 995 1194 888 b 1194 782 919 453 919 144 b 919 -133 1120 -240 1269 -240 b 1419 -240 1458 -139 1458 -139 b 1458 -139 1443 -111 1428 -136 z"},"g":{"x_min":0,"x_max":704,"ha":704,"o":"m 705 454 b 651 350 538 245 411 144 b 449 233 472 304 472 330 b 472 391 358 490 358 391 b 358 389 358 387 358 385 b 358 385 358 385 358 385 b 358 385 358 385 358 384 b 356 371 351 351 343 325 b 307 222 212 37 119 37 b -18 37 216 534 357 534 b 446 534 443 459 439 450 b 436 441 451 427 461 450 b 471 472 465 600 323 600 b 143 600 -46 364 -46 187 b -46 97 7 -3 104 -3 b 159 -3 224 67 253 103 b 235 64 216 23 195 -17 b -1 -157 -174 -277 -174 -354 b -174 -390 -143 -453 -29 -453 b 102 -453 279 -150 384 82 b 541 205 685 334 734 445 b 744 469 717 476 705 454 z m -109 -370 b -121 -370 -125 -363 -125 -353 b -125 -303 -1 -208 153 -92 b 67 -243 -31 -370 -109 -370 z"},"j":{"x_min":0,"x_max":203,"ha":203,"o":"m 159 847 b 85 847 53 689 102 689 b 128 689 236 701 236 782 b 236 820 211 847 159 847 z m 39 583 b 39 500 -327 -375 -495 -375 b -523 -375 -519 -330 -554 -330 b -588 -330 -544 -424 -453 -424 b -199 -424 136 423 136 502 b 136 563 39 630 39 583 z"},"i":{"x_min":0,"x_max":376,"ha":376,"o":"m 180 690 b 257 690 313 741 313 784 b 313 828 272 853 229 853 b 183 853 138 690 180 690 z m 376 457 b 343 388 155 48 52 48 b -44 48 200 455 200 502 b 200 563 103 631 103 584 b 103 537 -75 225 -75 124 b -75 49 -33 0 26 0 l 26 0 b 177 0 365 364 405 449 b 416 472 388 479 376 457 z"},"y":{"x_min":0,"x_max":673,"ha":673,"o":"m 672 455 b 617 349 501 242 370 139 b 450 310 505 460 505 496 b 505 558 392 657 392 558 b 392 550 373 497 342 419 b 271 317 69 34 28 34 b -43 34 213 425 213 498 b 213 583 101 625 101 584 b 101 482 -74 262 -74 127 b -74 81 -26 0 28 0 b 76 0 202 164 285 281 b 242 182 189 68 134 -35 b -48 -165 -203 -276 -203 -349 b -203 -385 -172 -447 -58 -447 b 52 -447 217 -178 339 74 b 501 200 651 332 701 447 b 711 470 684 477 672 455 z m -138 -365 b -150 -365 -154 -358 -154 -348 b -154 -302 -48 -217 91 -113 b 9 -256 -75 -365 -138 -365 z"},"@":{"x_min":0,"x_max":1053,"ha":1053,"o":"m 689 445 b 705 462 655 539 594 539 b 506 539 288 327 288 243 b 288 180 381 117 428 117 b 474 117 546 167 546 167 b 546 167 552 117 635 117 b 759 117 901 373 901 505 b 901 659 836 755 604 755 b 361 755 73 434 73 247 b 73 79 236 -73 416 -73 b 596 -73 793 47 793 97 b 793 131 765 132 765 115 b 765 54 583 -32 424 -32 b 269 -32 192 112 192 220 b 192 460 532 709 694 709 b 803 709 862 615 862 509 b 862 367 724 161 643 161 b 586 161 699 318 699 335 b 699 351 634 406 634 374 b 634 342 451 187 409 187 b 402 187 399 190 399 197 b 399 270 639 463 654 463 b 669 463 675 432 689 445 z"},".":{"x_min":0,"x_max":168,"ha":168,"o":"m 59 -1 b 73 -1 100 56 100 77 b 100 98 73 123 45 123 b 28 123 0 75 0 44 b 0 12 42 -1 59 -1 z"},"p":{"x_min":0,"x_max":699,"ha":699,"o":"m 700 455 b 673 400 526 162 304 74 b 426 177 491 364 491 452 b 491 582 442 600 358 600 b 300 600 172 406 61 215 b 121 343 169 454 169 503 b 169 563 54 631 54 584 b 54 451 -296 -162 -296 -296 b -296 -370 -239 -418 -193 -418 b -163 -418 -187 -382 -187 -356 b -187 -320 -155 -239 -109 -140 b -84 -94 -45 -25 -1 52 b 22 21 59 0 120 0 b 120 0 120 0 120 0 l 120 0 b 468 0 689 362 729 447 b 739 470 712 477 700 455 z m 72 34 b 44 34 27 54 18 84 b 140 294 298 545 353 545 b 423 545 237 34 72 34 z"},"X":{"x_min":0,"x_max":777,"ha":777,"o":"m 1190 -285 b 1160 -257 1152 -303 1141 -316 b 1103 -356 996 -353 892 -256 b 687 -64 587 153 525 354 b 646 464 751 588 807 705 b 903 903 837 1019 816 1029 b 782 1046 811 1005 700 774 b 654 680 578 579 489 483 b 434 702 411 887 318 974 b 257 1031 106 1003 189 926 b 255 864 299 627 382 374 b 162 165 -87 3 -140 28 b -168 42 -180 4 -169 -2 b -72 -48 187 78 420 264 b 483 94 568 -73 691 -189 b 959 -439 1140 -405 1189 -353 b 1207 -333 1210 -304 1190 -285 z"},"*":{"x_min":0,"x_max":453,"ha":453,"o":"m 457 796 b 421 796 369 775 315 746 b 332 789 344 822 344 826 b 344 839 325 850 325 843 b 325 831 302 786 276 736 b 263 767 254 792 254 796 b 254 816 186 831 186 822 b 186 815 206 759 236 701 b 159 655 92 608 83 608 b 62 608 80 591 105 591 b 117 591 169 617 229 649 b 210 612 195 583 195 578 b 195 562 215 548 226 548 b 231 548 250 589 271 640 b 298 600 327 570 355 570 b 382 570 377 584 370 584 b 353 584 324 634 299 685 b 375 725 449 762 472 762 b 483 762 490 766 490 776 b 490 785 480 796 457 796 z"},"Y":{"x_min":0,"x_max":884,"ha":884,"o":"m 983 751 b 983 857 941 900 900 900 b 868 900 869 883 869 860 b 869 769 261 -80 172 -80 b 166 -80 174 -80 169 -81 b 155 -48 141 10 141 68 b 141 402 418 730 418 809 b 418 872 377 924 324 924 b 295 924 299 902 299 872 b 299 785 0 438 0 86 b 0 -20 43 -153 151 -153 b 155 -153 159 -153 162 -153 b 163 -153 163 -153 164 -153 b 281 -153 372 68 565 297 b 411 27 307 -188 307 -375 b 307 -530 396 -574 460 -574 b 525 -574 455 -543 455 -399 b 455 62 983 603 983 751 z"},"c":{"x_min":0,"x_max":507,"ha":507,"o":"m 75 0 b 299 0 496 363 536 448 b 546 471 519 478 507 456 b 473 387 296 57 90 57 b -74 57 160 572 301 572 b 358 572 306 416 306 416 b 298 393 325 388 333 412 b 337 426 407 601 287 601 l 287 601 b 93 601 -110 401 -110 212 b -110 122 -51 0 75 0 z"},"!":{"x_min":0,"x_max":509,"ha":509,"o":"m 331 937 b 331 804 73 460 73 359 b 73 291 156 230 156 267 b 156 395 436 762 436 847 b 436 915 331 974 331 937 z m 36 224 b 13 224 -44 118 -44 75 b -44 32 51 -31 51 23 b 51 68 110 132 110 161 b 110 190 73 224 36 224 z"},"/":{"x_min":0,"x_max":420,"ha":420,"o":"m 80 -54 b 80 107 471 731 471 815 b 471 883 366 942 366 905 b 366 744 -2 138 -2 37 b -2 -30 80 -91 80 -54 z"},"[":{"x_min":0,"x_max":517,"ha":517,"o":"m 442 816 b 442 816 554 818 572 818 b 590 818 610 870 610 879 b 610 887 373 897 373 879 b 373 860 -52 2 -52 -26 b -52 -42 -17 -42 -17 -73 b -17 -87 122 -88 152 -88 b 182 -88 205 -37 205 -26 b 205 -15 74 -16 74 -16 l 442 816 z"},"6":{"x_min":0,"x_max":628,"ha":628,"o":"m 527 864 b 127 864 -269 1 242 1 b 539 1 715 533 373 533 b 292 533 227 495 177 450 b 264 624 420 788 589 788 b 623 788 661 760 661 729 b 661 698 689 704 689 728 b 689 764 648 864 527 864 z m 384 502 b 573 502 437 41 234 41 b 116 41 88 152 118 288 b 157 377 247 502 384 502 z"},"r":{"x_min":0,"x_max":396,"ha":396,"o":"m 396 453 b 360 371 187 36 113 36 b 27 36 183 291 183 330 b 183 368 88 364 88 461 b 88 530 159 602 159 641 b 159 679 88 691 51 691 b 14 691 -26 603 -26 520 b -26 495 -21 474 -13 457 b -14 456 -15 454 -15 453 b -30 420 -41 396 -85 318 b -97 299 -70 286 -58 307 b -20 374 -14 388 4 427 b 33 387 74 372 74 372 b 74 372 -17 212 -17 111 b -17 57 28 0 98 0 b 211 0 385 361 424 445 b 435 468 407 475 396 453 z"},"2":{"x_min":0,"x_max":653,"ha":653,"o":"m 654 661 b 654 661 654 662 654 663 b 654 664 654 665 654 665 b 650 791 500 847 395 847 b 288 847 191 784 151 689 b 93 551 171 502 176 515 b 181 528 160 545 199 639 b 234 723 382 812 475 812 b 522 812 564 774 564 727 b 564 698 558 680 545 651 b 453 447 41 240 6 162 b -5 137 0 105 12 79 b 8 58 17 30 38 20 b 69 5 312 98 493 12 b 548 -15 560 -72 580 -30 b 600 13 560 65 519 84 b 390 145 219 123 120 105 b 252 231 561 413 639 586 b 650 610 655 636 654 661 b 654 661 654 661 654 661 z"},"{":{"x_min":0,"x_max":504,"ha":504,"o":"m 579 1001 b 382 1001 251 479 83 479 b 63 479 110 436 145 436 b 174 348 -29 98 -29 23 b -29 -67 17 -111 60 -111 b 104 -111 55 -75 55 -38 b 55 57 230 264 230 349 b 230 433 187 445 187 445 b 317 445 474 960 602 960 b 664 960 619 1001 579 1001 z"},"9":{"x_min":0,"x_max":668,"ha":668,"o":"m 448 862 b 151 862 -26 330 316 330 b 405 330 476 376 526 428 b 438 249 274 76 101 76 b 67 76 28 104 28 134 b 28 165 0 160 0 135 b 0 99 42 0 162 0 b 539 0 904 862 448 862 z m 592 651 b 592 596 509 361 321 361 b 171 361 269 823 472 823 b 567 823 602 750 595 651 b 593 653 592 654 592 651 z"}," ":{"x_min":0,"x_max":357,"ha":357,"o":""},"I":{"x_min":0,"x_max":725,"ha":725,"o":"m 805 940 b 805 993 757 1037 713 1037 b 330 1037 -306 561 -306 381 b -306 301 -248 254 -183 254 b -117 254 -183 289 -183 359 b -183 624 466 997 692 1004 b 692 1001 692 997 692 994 b 692 969 280 336 280 -63 b 280 -152 337 -264 427 -264 b 518 -264 414 -196 414 -78 b 414 307 805 874 805 940 z"},"H":{"x_min":0,"x_max":1035,"ha":1035,"o":"m 1061 559 b 1041 559 1022 558 1002 558 b 1078 688 1147 797 1147 842 b 1147 920 1026 988 1026 945 b 1026 867 935 714 847 549 b 744 540 647 524 559 505 b 669 709 797 871 797 909 b 797 962 737 1006 693 1006 b 309 1006 -327 529 -327 350 b -327 269 -268 222 -203 222 b -138 222 -203 258 -203 327 b -203 592 446 966 672 972 b 672 969 672 965 672 962 b 672 946 493 720 371 454 b 209 400 109 337 109 292 b 109 254 151 205 166 204 b 166 204 166 204 166 204 b 253 204 260 81 260 31 b 260 29 260 27 260 25 b 262 -63 319 -170 407 -170 b 497 -170 407 -102 407 16 b 407 151 455 293 517 423 b 608 459 712 491 827 511 b 751 366 683 216 683 99 b 683 15 738 -67 809 -67 b 869 -67 813 -19 813 75 b 813 207 900 378 985 528 b 1008 529 1032 530 1055 530 b 1098 530 1098 559 1061 559 z m 270 147 b 261 182 238 221 183 228 b 203 250 250 286 319 326 b 297 267 280 206 270 147 z"},"4":{"x_min":0,"x_max":717,"ha":717,"o":"m 555 301 b 534 311 512 319 488 324 b 573 514 719 711 719 771 b 719 825 652 874 625 873 l 625 873 b 625 873 625 873 625 873 b 618 872 614 869 614 861 b 614 860 614 859 614 858 b 483 685 198 347 21 303 b 15 301 11 299 10 297 b 7 296 6 295 4 292 b -6 271 2 251 27 239 b 48 229 195 269 343 266 b 326 216 316 168 316 126 b 316 52 364 -19 425 -19 b 477 -19 428 23 428 105 b 428 150 440 200 459 253 b 484 247 508 239 530 229 b 585 202 597 145 617 187 b 637 230 597 281 555 301 z m 191 323 b 299 414 441 565 556 699 b 502 593 423 461 371 337 b 308 338 246 331 191 323 z"},"~":{"x_min":0,"x_max":677,"ha":677,"o":"m 224 707 b 224 707 225 735 259 735 b 335 735 426 702 468 702 b 505 702 531 717 531 747 b 531 779 522 807 513 807 b 504 807 508 783 465 783 b 428 783 333 812 285 812 b 178 812 187 707 224 707 z"},"D":{"x_min":0,"x_max":1208,"ha":1208,"o":"m 854 1046 b 212 1046 -245 633 -245 396 b -245 282 -164 250 -100 251 b -98 251 -96 251 -94 251 b 103 251 486 706 600 757 b 554 584 269 93 269 -20 b 269 -86 331 -131 372 -131 b 400 -131 378 -98 378 -74 b 378 35 721 600 721 722 b 721 765 647 814 618 809 l 618 809 b 500 809 91 292 -86 292 b -87 292 -88 291 -90 291 b -109 294 -125 306 -125 343 b -125 486 266 1010 874 1010 b 1498 1010 839 -227 77 -227 b -59 -227 -10 -121 -58 -121 b -105 -121 -76 -273 81 -273 b 997 -273 1773 1046 854 1046 z"},"^":{"x_min":0,"x_max":681,"ha":681,"o":"m 167 691 b 155 691 175 659 207 659 b 262 659 361 774 361 774 b 361 774 432 659 471 659 b 477 659 486 663 486 670 b 486 677 408 753 408 805 b 408 834 352 842 338 842 b 325 842 191 691 167 691 z"},"0":{"x_min":0,"x_max":722,"ha":722,"o":"m 472 851 b 406 851 344 808 296 764 b 37 667 -165 0 199 0 b 619 0 877 851 472 851 z m 198 27 b -8 27 192 705 388 705 b 399 705 402 702 412 702 b 443 702 413 775 357 775 b 357 775 357 775 357 775 b 393 807 431 829 465 829 b 727 829 454 27 198 27 z"},"F":{"x_min":0,"x_max":627,"ha":627,"o":"m 1014 1106 b 499 1106 -191 781 -271 781 b -380 781 -292 662 -211 662 b -49 662 413 1008 1188 1008 b 1325 1008 1415 952 1415 899 b 1415 882 1390 844 1430 844 b 1456 844 1473 867 1473 893 b 1473 963 1368 1106 1014 1106 z m 608 622 b 552 622 480 610 404 592 b 455 687 452 680 452 710 b 452 764 343 836 343 782 b 343 753 303 690 220 531 b 95 485 -3 432 -3 398 b -3 387 1 378 17 378 b 26 378 82 402 168 430 b 100 297 1 86 1 30 b 1 -85 90 -166 135 -166 b 180 -166 118 -126 118 -2 b 118 64 255 322 344 482 b 431 500 529 514 633 514 b 671 514 673 622 608 622 z"},"`":{"x_min":0,"x_max":833,"ha":833,"o":"m 279 854 b 279 810 431 672 537 672 b 576 672 587 706 572 706 b 507 706 373 873 373 899 b 373 923 279 884 279 854 z"},"k":{"x_min":0,"x_max":559,"ha":559,"o":"m 559 455 b 505 327 335 33 240 33 b 168 33 170 176 167 252 b 295 287 436 398 436 500 b 436 553 395 595 359 599 b 358 599 357 599 356 599 b 356 599 356 599 356 599 b 355 599 354 599 352 599 b 327 599 218 506 139 436 b 223 603 309 775 309 844 b 309 903 195 972 195 925 b 195 791 -129 256 -129 122 b -129 48 -71 0 -26 0 b 5 0 -20 36 -20 62 b -20 99 12 175 55 267 b 68 252 84 240 90 240 b 90 240 90 240 90 240 b 90 158 142 0 235 0 b 371 0 548 362 588 446 b 598 469 571 477 559 455 z m 95 338 b 179 432 333 543 353 558 b 386 546 241 353 95 338 z"},"u":{"x_min":0,"x_max":639,"ha":639,"o":"m 641 453 b 608 385 455 48 364 48 b 269 48 512 453 512 500 b 512 561 415 628 415 582 b 415 565 392 515 363 453 b 363 453 75 34 26 34 b -45 34 210 424 210 496 b 210 581 99 628 99 582 b 99 480 -76 261 -76 127 b -76 81 -28 0 26 0 b 76 0 208 177 291 293 b 261 224 238 160 238 124 b 238 72 289 0 338 0 l 338 0 b 472 0 630 361 670 445 b 680 468 653 475 641 453 z"},"]":{"x_min":0,"x_max":505,"ha":505,"o":"m 14 -8 b 14 -8 -97 -10 -116 -10 b -134 -10 -153 -62 -153 -70 b -153 -79 83 -89 83 -70 b 83 -52 509 797 509 826 b 509 842 474 842 474 872 b 474 886 336 887 305 887 b 275 887 252 836 252 826 b 252 815 383 816 383 816 l 14 -8 z"},"U":{"x_min":0,"x_max":938,"ha":938,"o":"m 665 -4 b 665 211 976 615 976 839 b 976 899 929 941 880 941 b 828 941 845 925 845 892 b 845 892 343 1 139 -76 b 131 -61 118 -47 118 22 b 118 237 477 728 477 945 b 477 987 497 1159 335 1159 b -5 1159 -341 865 -341 574 b -341 281 -137 283 -137 310 b -137 337 -197 343 -197 543 b -197 756 92 1129 302 1129 b 548 1129 -4 311 -4 90 b -4 -54 70 -120 113 -125 l 113 -125 b 114 -125 114 -125 115 -125 b 120 -125 124 -125 127 -124 b 325 -96 677 503 812 745 b 732 517 530 193 530 23 b 530 -288 753 -300 753 -255 b 753 -217 665 -240 665 -4 z"},"o":{"x_min":0,"x_max":642,"ha":642,"o":"m 644 453 b 619 400 502 224 373 188 b 425 278 459 390 459 496 b 459 557 436 600 344 600 b 272 600 204 539 157 472 b 139 480 118 484 101 484 b 67 484 -40 324 -40 198 b -40 67 42 0 127 0 b 209 0 289 61 350 151 b 522 172 642 381 670 439 b 682 466 655 483 644 453 z m 130 42 b 36 42 73 155 120 258 b 154 202 224 158 298 150 b 252 87 194 42 130 42 z m 319 181 b 111 189 343 549 390 549 b 451 549 413 331 319 181 z"},"N":{"x_min":0,"x_max":888,"ha":888,"o":"m 1033 -146 b 1019 -172 979 -207 895 -207 b 811 -207 634 -149 634 97 b 634 388 1068 971 1068 1094 b 1068 1154 1040 1213 958 1213 b 856 1213 584 920 419 708 b 450 780 472 847 472 901 b 472 937 477 1084 339 1084 b -2 1084 -361 751 -361 460 b -361 167 -158 169 -158 196 b -158 223 -217 229 -217 429 b -217 642 101 1058 311 1058 b 521 1058 38 360 38 172 b 38 -1 176 -42 176 10 b 176 42 153 31 153 114 b 153 215 251 381 337 544 b 348 556 361 573 378 596 b 521 786 915 1227 915 1121 b 915 1014 499 447 499 138 b 499 -139 725 -250 875 -250 b 1024 -250 1063 -149 1063 -149 b 1063 -149 1049 -120 1033 -146 z"},"+":{"x_min":0,"x_max":610,"ha":610,"o":"m 525 456 b 457 456 395 453 340 449 b 381 531 417 604 417 617 b 417 648 343 680 343 653 b 343 643 284 539 228 437 b 104 421 29 401 14 401 b -23 401 21 363 51 363 b 65 363 117 373 199 385 b 160 313 129 251 129 238 b 129 217 210 122 210 182 b 210 197 262 297 313 398 b 386 404 471 409 568 409 b 604 409 568 456 525 456 z"},"G":{"x_min":0,"x_max":857,"ha":857,"o":"m 676 469 b 626 469 645 450 647 428 b 550 310 196 -113 106 -113 b -103 -113 175 948 671 948 b 736 948 758 872 758 825 b 758 737 713 635 692 635 b 682 635 676 610 696 610 b 723 610 823 739 823 886 b 823 986 752 1043 630 1043 b 243 1043 -97 569 -97 179 b -97 -56 -21 -164 96 -164 b 231 -164 529 206 634 342 b 578 107 353 -464 89 -464 b 12 -464 -12 -428 14 -375 b 27 -347 -25 -321 -45 -383 b -64 -442 -36 -519 97 -519 b 430 -519 768 85 768 372 b 768 423 729 469 676 469 z"},"q":{"x_min":0,"x_max":623,"ha":623,"o":"m 623 453 b 593 392 408 159 323 57 b 381 176 428 282 428 333 b 428 392 314 460 314 414 b 314 390 303 353 287 309 b 210 197 82 39 52 39 b -17 39 148 532 298 532 b 387 532 384 458 380 449 b 376 440 391 427 401 449 b 411 471 406 598 265 598 b 86 598 -70 363 -70 188 b -70 136 -58 -1 39 -1 b 81 -1 164 88 219 153 b 124 -51 -9 -302 -9 -388 b -9 -462 48 -510 94 -510 b 124 -510 100 -474 100 -448 b 100 -391 173 -243 251 -89 b 410 118 615 366 652 445 b 662 468 635 476 623 453 z"},"d":{"x_min":0,"x_max":727,"ha":727,"o":"m 727 454 b 693 386 489 48 398 48 b 304 48 702 744 702 867 b 702 905 597 969 597 929 b 597 911 525 723 435 524 b 428 562 400 599 324 599 b 145 599 -42 364 -42 189 b -42 99 10 0 107 0 b 193 0 270 125 270 125 b 270 125 275 0 383 0 b 503 0 716 361 756 446 b 766 469 739 476 727 454 z m 122 40 b -15 40 217 533 358 533 b 401 533 369 458 365 450 b 363 445 378 439 394 438 b 296 232 185 40 122 40 z"},"1":{"x_min":0,"x_max":540,"ha":540,"o":"m 569 783 b 569 837 503 886 475 885 l 475 885 b 475 885 475 885 475 885 b 468 884 464 881 464 873 b 464 872 464 871 464 870 b 341 706 173 517 -3 473 b -36 465 -39 483 -56 479 b -84 472 -41 389 42 410 b 125 431 274 564 408 715 b 322 543 166 302 166 138 b 166 64 214 -7 276 -7 b 328 -7 279 35 279 117 b 279 341 569 699 569 783 z"},"5":{"x_min":0,"x_max":543,"ha":543,"o":"m 239 782 b 283 774 342 766 415 766 b 564 766 549 875 533 875 b 525 875 512 832 396 832 b 309 832 206 858 168 862 b 162 864 156 864 153 862 b 146 858 137 849 137 833 b 137 823 139 816 141 810 b 116 721 16 637 16 530 b 16 491 66 433 100 433 b 159 433 370 552 370 399 b 370 245 218 81 10 81 b -38 81 -63 112 -70 130 b -93 195 -136 201 -110 131 b -90 77 -30 1 95 1 b 260 1 456 170 456 337 b 456 552 216 547 101 491 b 101 494 101 496 101 499 b 101 612 224 730 239 782 z"}}}
